<svg xmlns="http://www.w3.org/2000/svg" version="1.1" xmlns:xlink="http://www.w3.org/1999/xlink" width="1000" height="1000"><g><g transform="matrix(12.5,0,0,12.5,0,0)"><svg xmlns="http://www.w3.org/2000/svg" version="1.1" xmlns:xlink="http://www.w3.org/1999/xlink" width="80" height="80"><svg xmlns="http://www.w3.org/2000/svg" viewBox="0 0 80 80">
  <circle cx="40" cy="40" r="40" fill="#fd8369"></circle>
  <path fill="#ea6552" d="M61.711 18.29c-2.007-2.008-5.609-2.085-10.138-.218a1 1 0 0 0-.544 1.306c.1.242 8.486 8.597 8.662 8.697-.051.12-.107.243-.161.364-.041-.039-3.666-3.677-3.75-3.759l-.047-.045c-.064-.061-.132-.118-.196-.179-.083-.083-.155-.177-.24-.259l-.047-.045c-.276-.266-.56-.525-.85-.776l-.061-.053a22.317 22.317 0 0 0-.927-.756A21.895 21.895 0 0 0 40 18c-12.15 0-22 9.85-22 22a21.908 21.908 0 0 0 5.372 14.396c.253.293 4.868 4.925 4.952 5.009.037.04.072.081.11.12-.129.057-.258.116-.385.17-.099-.157-7.928-8.009-8.149-8.113a.99.99 0 0 0-.524-.51 1.003 1.003 0 0 0-1.305.547c-1.848 4.514-1.77 8.096.221 10.088l18.126 18.126c1.18.104 2.374.167 3.582.167 22.091 0 40-17.909 40-40a40.16 40.16 0 0 0-.169-3.589L61.711 18.29z"></path>
  <circle cx="40" cy="40" r="22" fill="#8fdef6"></circle>
  <path fill="#58b4d9" d="M53.411 22.566a21.902 21.902 0 0 1 4.566 13.411c0 12.15-9.85 22-22 22a21.9 21.9 0 0 1-13.411-4.565C26.588 58.632 32.899 62 40 62c12.15 0 22-9.85 22-22 0-7.101-3.368-13.412-8.589-17.434z"></path>
  <g fill="#495057">
    <path d="M22.344 63.154c-1.709 0-3.08-.48-4.053-1.448-1.991-1.992-2.068-5.574-.221-10.088a1.002 1.002 0 0 1 1.852.758c-1.501 3.666-1.581 6.551-.219 7.914 1.671 1.663 5.875.92 11.246-1.992 3.497-1.896 6.564-3.933 9.375-6.226a.996.996 0 0 1 1.406.143.997.997 0 0 1-.143 1.406c-2.909 2.374-6.077 4.479-9.686 6.435-3.793 2.058-7.042 3.098-9.557 3.098zM49.004 45.997a.998.998 0 0 1-.729-1.684c4.285-4.558 7.753-9.179 10.031-13.363 2.91-5.368 3.654-9.573 1.988-11.247-1.356-1.356-4.333-1.275-7.96.22a1 1 0 0 1-.762-1.85c4.528-1.867 8.131-1.79 10.138.218 2.395 2.405 1.809 7.239-1.647 13.613-2.358 4.335-5.931 9.099-10.331 13.778a.992.992 0 0 1-.728.315z"></path>
  </g>
  <g fill="#fff">
    <path d="M31.954 48.997 30 46l16-16 4 4-13 13z"></path>
    <path d="m43.956 52 2-2.003L46 38h-6z"></path>
    <path d="m27.956 35.997 2.954-2L42 34v6zM31.954 48.997l-6-1.997 1.954-2H33zM50 34c1.717-1.716 2-4 2-6-2 0-4.284.283-6 2z"></path>
  </g>
</svg></svg></g></g></svg>